<svg xmlns="http://www.w3.org/2000/svg" width="50" height="50" fill="none"><path fill="url(#a)" d="M12.988 20.117h6.153a.977.977 0 1 0 0-1.953h-6.153a.977.977 0 1 0 0 1.953"/><path fill="url(#b)" d="M12.988 25.977h6.153a.977.977 0 1 0 0-1.954h-6.153a.977.977 0 1 0 0 1.954"/><path fill="url(#c)" d="M12.988 31.836h6.153a.977.977 0 1 0 0-1.953h-6.153a.977.977 0 1 0 0 1.953"/><path fill="url(#d)" d="M37.012 18.164h-6.153a.977.977 0 1 0 0 1.953h6.153a.977.977 0 1 0 0-1.953"/><path fill="url(#e)" d="M37.012 24.023h-6.153a.977.977 0 1 0 0 1.954h6.153a.977.977 0 1 0 0-1.954"/><path fill="url(#f)" d="M37.012 43.555a.977.977 0 1 0 0-1.953.977.977 0 0 0 0 1.953"/><path fill="url(#g)" d="M49.023 9.375h-5.175V7.422a.977.977 0 0 0-.977-.977H32.073c-2.618 0-5.096.91-7.073 2.58a10.9 10.9 0 0 0-7.073-2.58H7.129a.977.977 0 0 0-.977.977v1.953H.977a.977.977 0 0 0-.977.977v32.226c0 .54.437.977.977.977h31.64a.977.977 0 0 0 0-1.953h-6.64v-1.537a8.96 8.96 0 0 1 6.096-2.37h10.798c.54 0 .977-.437.977-.976v-25.39h4.199v30.273h-6.64a.977.977 0 0 0 0 1.953h7.616c.54 0 .977-.437.977-.977V10.352a.977.977 0 0 0-.977-.977M8.105 8.398h9.822a8.96 8.96 0 0 1 6.096 2.37v26.818a10.9 10.9 0 0 0-6.096-1.844H8.105zM1.953 41.602V11.328h4.2v25.39c0 .54.437.977.976.977h10.798c2.279 0 4.428.839 6.096 2.37v1.537zm39.942-5.86h-9.822c-2.203 0-4.307.645-6.096 1.844V10.768a8.96 8.96 0 0 1 6.096-2.37h9.822z"/><defs><linearGradient id="a" x1="16.064" x2="16.064" y1="18.164" y2="20.117" gradientUnits="userSpaceOnUse"><stop stop-color="#1ECFFE"/><stop offset="1" stop-color="#1287FF"/></linearGradient><linearGradient id="b" x1="16.064" x2="16.064" y1="24.023" y2="25.977" gradientUnits="userSpaceOnUse"><stop stop-color="#1ECFFE"/><stop offset="1" stop-color="#1287FF"/></linearGradient><linearGradient id="c" x1="16.064" x2="16.064" y1="29.883" y2="31.836" gradientUnits="userSpaceOnUse"><stop stop-color="#1ECFFE"/><stop offset="1" stop-color="#1287FF"/></linearGradient><linearGradient id="d" x1="33.935" x2="33.935" y1="18.164" y2="20.117" gradientUnits="userSpaceOnUse"><stop stop-color="#1ECFFE"/><stop offset="1" stop-color="#1287FF"/></linearGradient><linearGradient id="e" x1="33.935" x2="33.935" y1="24.023" y2="25.977" gradientUnits="userSpaceOnUse"><stop stop-color="#1ECFFE"/><stop offset="1" stop-color="#1287FF"/></linearGradient><linearGradient id="f" x1="37.012" x2="37.012" y1="41.602" y2="43.555" gradientUnits="userSpaceOnUse"><stop stop-color="#1ECFFE"/><stop offset="1" stop-color="#1287FF"/></linearGradient><linearGradient id="g" x1="25" x2="25" y1="6.445" y2="43.555" gradientUnits="userSpaceOnUse"><stop stop-color="#1ECFFE"/><stop offset="1" stop-color="#1287FF"/></linearGradient></defs></svg>