<svg xmlns="http://www.w3.org/2000/svg" width="50" height="50" fill="none"><g clip-path="url(#a)"><path fill="url(#b)" d="M37.007 21.277a.977.977 0 1 0-1.381 1.38.977.977 0 0 0 1.381-1.38"/><path fill="url(#c)" d="M49.137 6.386 43.612.86a2.93 2.93 0 0 0-4.143 0l-1.771 1.772a2.92 2.92 0 0 0-.786 2.72l-8.008 1.414a8.75 8.75 0 0 0-4.686 2.44l-1.713 1.712a4.88 4.88 0 0 0-1.379 4.143 4.86 4.86 0 0 0-4.144 1.38 4.86 4.86 0 0 0-1.382 4.145 4.86 4.86 0 0 0-4.142 1.38 4.86 4.86 0 0 0-1.381 4.146 4.88 4.88 0 0 0-4.144 1.379L2 31.425c-2.665 2.665-2.665 7.002 0 9.669l6.905 6.905c2.666 2.664 7.003 2.665 9.668 0l3.934-3.935a4.88 4.88 0 0 0 1.378-4.144 4.878 4.878 0 0 0 5.524-5.523 4.86 4.86 0 0 0 4.146-1.381 4.88 4.88 0 0 0 1.38-4.143 4.86 4.86 0 0 0 4.145-1.381l1.71-1.712a8.75 8.75 0 0 0 2.442-4.687l1.413-8.008a2.92 2.92 0 0 0 2.721-.785l1.771-1.772a2.927 2.927 0 0 0 0-4.142M21.125 42.683l-3.934 3.935a4.89 4.89 0 0 1-6.906 0L3.38 39.713a4.89 4.89 0 0 1 0-6.907l3.934-3.933a2.933 2.933 0 0 1 4.144 0l9.667 9.667a2.933 2.933 0 0 1 0 4.143m5.524-5.524a2.93 2.93 0 0 1-4.143 0l-9.667-9.667a2.929 2.929 0 1 1 4.143-4.143l9.667 9.666a2.934 2.934 0 0 1 0 4.144m5.524-5.524a2.927 2.927 0 0 1-4.143 0l-9.667-9.668a2.927 2.927 0 0 1 0-4.143 2.926 2.926 0 0 1 4.143 0l9.667 9.668a2.93 2.93 0 0 1 0 4.143m9.134-10.881a6.8 6.8 0 0 1-1.899 3.645l-1.71 1.712a2.933 2.933 0 0 1-4.144 0l-9.667-9.668a2.933 2.933 0 0 1 0-4.143l1.712-1.712a6.8 6.8 0 0 1 3.644-1.898l8.814-1.555 4.806 4.805zm6.448-11.607-1.771 1.772a.976.976 0 0 1-1.38 0l-5.525-5.525a.976.976 0 0 1 0-1.38l1.771-1.772a.976.976 0 0 1 1.381 0l5.524 5.525a.975.975 0 0 1 0 1.38"/><path fill="url(#d)" d="m49.357 36.99-4.352-8.525a.977.977 0 0 0-1.74 0l-4.35 8.525c-1.978 3.87.84 8.52 5.22 8.52s7.2-4.65 5.222-8.52m-5.222 6.567c-2.923 0-4.797-3.104-3.481-5.679l3.481-6.821 3.482 6.822c1.315 2.571-.556 5.678-3.482 5.678"/><path fill="url(#e)" d="M34.245 18.514 29.53 13.8a.977.977 0 0 0-1.381 1.38l4.715 4.715a.977.977 0 1 0 1.381-1.38"/></g><defs><linearGradient id="b" x1="36.317" x2="36.317" y1="20.991" y2="22.944" gradientUnits="userSpaceOnUse"><stop stop-color="#EBB011"/><stop offset=".995" stop-color="#ED861D"/></linearGradient><linearGradient id="c" x1="24.998" x2="24.998" y1=".002" y2="49.998" gradientUnits="userSpaceOnUse"><stop stop-color="#EBB011"/><stop offset=".995" stop-color="#ED861D"/></linearGradient><linearGradient id="d" x1="44.135" x2="44.135" y1="27.932" y2="45.51" gradientUnits="userSpaceOnUse"><stop stop-color="#EBB011"/><stop offset=".995" stop-color="#ED861D"/></linearGradient><linearGradient id="e" x1="31.197" x2="31.197" y1="13.514" y2="20.181" gradientUnits="userSpaceOnUse"><stop stop-color="#EBB011"/><stop offset=".995" stop-color="#ED861D"/></linearGradient><clipPath id="a"><path fill="#fff" d="M0 0h50v50H0z"/></clipPath></defs></svg>