<svg xmlns="http://www.w3.org/2000/svg" width="50" height="50" fill="none"><g clip-path="url(#a)"><path fill="url(#b)" d="M49.219 28.085c0-3.401-1.65-6.65-4.412-8.689a3.32 3.32 0 0 0-1.966-.646 3.3 3.3 0 0 0-2.313.952c-.113-.095-.216-.199-.334-.289a3.25 3.25 0 0 0-1.488-.61l.345-3.787a3.027 3.027 0 0 0-3.012-3.297h-.203a3.027 3.027 0 0 0-3.011 3.297l.346 3.805a3.34 3.34 0 0 0-1.379.587c-.14.104-.264.225-.398.335a3 3 0 0 0-.219-.204c.044-.26.075-.523.075-.789 0-.992-.31-1.941-.883-2.734a4.65 4.65 0 0 0 .883-2.735c0-2.675-2.263-4.843-4.96-4.679a4.67 4.67 0 0 0-3.109-2.939 4.62 4.62 0 0 0-3.922-1.748A4.67 4.67 0 0 0 14.844.78a4.68 4.68 0 0 0-4.061 2.346c-2.069.07-3.857 1.53-4.37 3.52a6.28 6.28 0 0 0-4.07 5.853 6.22 6.22 0 0 0 2.734 5.163 4.65 4.65 0 0 0-.39 1.868c0 1.407.625 2.714 1.698 3.599q-.135.544-.135 1.089a4.695 4.695 0 0 0 4.125 4.654l1.728 4.84a8.6 8.6 0 0 0-2.22 2.406l-4.092-.91a2.192 2.192 0 0 0-2.666 2.136v.31c0 .218.042.426.102.626h-.102a2.347 2.347 0 0 0-2.344 2.344 2.347 2.347 0 0 0 2.344 2.344h.102c-.06.2-.102.408-.102.626v.31a2.192 2.192 0 0 0 2.664 2.136l4.095-.91c1.516 2.449 4.218 4.088 7.304 4.088h.183c.434 0 .874-.034 1.306-.1l26.79-4.121a4.4 4.4 0 0 0 3.752-4.373 4.39 4.39 0 0 0-2.534-3.985 10.8 10.8 0 0 0 2.534-6.913zm-9.974-7.43c2.332 1.782 3.724 4.622 3.724 7.598v2.87c0 1.601-.4 3.17-1.152 4.568l-6.265-.964a15.6 15.6 0 0 1-.396-3.454v-3.171c0-.788.08-1.575.199-2.354.191.016.382.033.583.033 2.227 0 3.906-1.008 3.906-2.343 0-.738-.51-1.393-1.394-1.822l.115-1.264c.244.049.478.147.68.303m-3.41-7.374h.205a1.463 1.463 0 0 1 1.455 1.594l-.71 7.802.596.192c.685.218.9.507.9.569 0 .194-.831.78-2.343.78s-2.344-.586-2.344-.78c0-.062.215-.35.9-.57l.596-.191-.71-7.802a1.463 1.463 0 0 1 1.455-1.594m-2.523 7.096.113 1.239c-.884.43-1.394 1.084-1.394 1.822 0 .86.703 1.58 1.794 1.986-.14.887-.231 1.782-.231 2.678v3.171c0 1.074.103 2.146.303 3.2l-4.606-.709a9.4 9.4 0 0 1-.385-2.642v-2.87a9.52 9.52 0 0 1 3.82-7.593c.175-.13.376-.225.587-.282M24.87 33.084a9.1 9.1 0 0 1-.651-3.357v-1.643c0-2.907 1.412-5.686 3.777-7.432a1.76 1.76 0 0 1 1.038-.34c.472 0 .906.19 1.224.508-1.842 2.02-2.914 4.67-2.914 7.433v2.87c0 .805.096 1.602.27 2.383zm.073-23.474.142.804.797-.177a3 3 0 0 1 .68-.08 3.13 3.13 0 0 1 3.125 3.124c0 .821-.318 1.598-.896 2.187l-.538.548.538.547c.578.59.896 1.366.896 2.187q-.002.035-.004.071a3.3 3.3 0 0 0-.65-.071c-.703 0-1.402.229-1.965.645a10.9 10.9 0 0 0-3.3 3.968 52 52 0 0 0-.928-2.643c.723-3.817 3.403-6.026 3.43-6.049l-.489-.608-.488-.61c-.109.086-2.222 1.812-3.409 4.925-1.625-3.733-3.16-6.148-3.258-6.3l-1.315.845c.021.032 1.212 1.906 2.6 4.89-2.338-.88-4.993-.637-5.145-.622l.155 1.555c1.175-.118 4.503-.06 6.058 1.526a50 50 0 0 1 1.564 4.403c-2.375-1.218-5.209-1.238-5.355-1.238V25c.036 0 3.514.023 5.573 1.66-.064.47-.105.945-.105 1.425v1.643c0 1.056.163 2.088.464 3.088l-4.443-.684a9 9 0 0 0-.708-.077c-1.724 0-3.125-1.413-3.125-3.148 0-.364.072-.738.215-1.112l.228-.597-.542-.343a3.11 3.11 0 0 1-.942-4.361l.487-.732-.783-.397a4.67 4.67 0 0 1-2.57-4.177 4.705 4.705 0 0 1 3.398-4.504l.485-.139.073-.499c.223-1.523 1.545-2.671 3.076-2.671.029 0 .057.006.085.01q.082.013.166.019l.56.045.22-.517a3.12 3.12 0 0 1 2.875-1.9 3.114 3.114 0 0 1 3.068 2.578M11.488 27.344h-.55a3.13 3.13 0 0 1-3.126-3.125c0-.365.073-.739.215-1.111l.23-.598-.542-.342a3.11 3.11 0 0 1-.943-4.362l.487-.731-.783-.398a4.67 4.67 0 0 1-2.57-4.177 4.705 4.705 0 0 1 3.397-4.503l.485-.14.073-.498c.223-1.523 1.546-2.671 3.077-2.671.03 0 .058.006.087.01q.08.011.16.018l.563.047.222-.52a3.12 3.12 0 0 1 2.874-1.9 3.11 3.11 0 0 1 3.068 2.58l.142.804.797-.178a3 3 0 0 1 .68-.08c.36 0 .701.079 1.028.193a4.68 4.68 0 0 0-2.745 2.153c-2.069.07-3.857 1.53-4.37 3.519a6.28 6.28 0 0 0-4.069 5.854 6.22 6.22 0 0 0 2.734 5.162 4.65 4.65 0 0 0-.39 1.869c0 1.406.625 2.713 1.697 3.599a4.5 4.5 0 0 0-.135 1.088c0 1.373.59 2.607 1.526 3.467q-.696.204-1.338.516zm-6.8 10.31v-.309c0-.392.38-.694.763-.611l3.718.826q-.136.354-.242.721H5.314a.627.627 0 0 1-.626-.626m-2.344 2.971c0-.43.35-.781.781-.781h5.508c-.023.258-.04.517-.04.781s.017.523.04.781H3.126a.78.78 0 0 1-.781-.781m3.105 3.891c-.37.08-.761-.22-.761-.611v-.31c0-.345.28-.626.626-.626h3.613q.105.367.241.72zm42.207-3.891a2.846 2.846 0 0 1-2.425 2.828l-26.79 4.121a7 7 0 0 1-1.07.082h-.183c-3.877 0-7.032-3.154-7.032-7.031s3.155-7.031 7.031-7.031h.184c.356 0 .716.027 1.07.081l26.789 4.121a2.85 2.85 0 0 1 2.426 2.829m0-10.898c0 2.403-.972 4.729-2.665 6.452l-1.552-.24a11.2 11.2 0 0 0 1.092-4.817v-2.87c0-2.776-1.058-5.441-2.875-7.463a1.73 1.73 0 0 1 2.223-.136c2.365 1.745 3.777 4.524 3.777 7.432z"/><path fill="url(#c)" d="M16.406 36.719h1.563v7.812h-1.563z"/><path fill="url(#d)" d="M22.656 36.719h1.563v7.812h-1.563z"/><path fill="url(#e)" d="M28.906 36.719h1.563v7.812h-1.563z"/><path fill="url(#f)" d="M35.156 38.281h1.563v4.688h-1.563z"/><path fill="url(#g)" d="M41.406 39.063h1.563v3.124h-1.563z"/></g><defs><linearGradient id="b" x1="25" x2="25" y1=".781" y2="49.219" gradientUnits="userSpaceOnUse"><stop stop-color="#00AF90"/><stop offset=".979" stop-color="#00715D"/></linearGradient><linearGradient id="c" x1="17.188" x2="17.188" y1="36.719" y2="44.531" gradientUnits="userSpaceOnUse"><stop stop-color="#00AF90"/><stop offset=".979" stop-color="#00715D"/></linearGradient><linearGradient id="d" x1="23.438" x2="23.438" y1="36.719" y2="44.531" gradientUnits="userSpaceOnUse"><stop stop-color="#00AF90"/><stop offset=".979" stop-color="#00715D"/></linearGradient><linearGradient id="e" x1="29.688" x2="29.688" y1="36.719" y2="44.531" gradientUnits="userSpaceOnUse"><stop stop-color="#00AF90"/><stop offset=".979" stop-color="#00715D"/></linearGradient><linearGradient id="f" x1="35.938" x2="35.938" y1="38.281" y2="42.969" gradientUnits="userSpaceOnUse"><stop stop-color="#00AF90"/><stop offset=".979" stop-color="#00715D"/></linearGradient><linearGradient id="g" x1="42.188" x2="42.188" y1="39.063" y2="42.188" gradientUnits="userSpaceOnUse"><stop stop-color="#00AF90"/><stop offset=".979" stop-color="#00715D"/></linearGradient><clipPath id="a"><path fill="#fff" d="M0 0h50v50H0z"/></clipPath></defs></svg>