<svg xmlns="http://www.w3.org/2000/svg" width="50" height="50" fill="none"><g clip-path="url(#a)"><path fill="url(#b)" d="M26.655 17.678a.732.732 0 0 0 0-1.465h-3.31a.732.732 0 1 0 0 1.465z"/><path fill="url(#c)" d="M20.23 19.9c0 .405.327.733.732.733h8.074a.732.732 0 1 0 0-1.465h-8.074a.73.73 0 0 0-.733.732"/><path fill="url(#d)" d="M30.275 34.311h-2.3v-2.3a2.03 2.03 0 0 0-2.031-2.028h-1.89c-1.119 0-2.029.91-2.029 2.028v2.3h-2.3a2.03 2.03 0 0 0-2.028 2.032v1.89a2.03 2.03 0 0 0 2.028 2.028h2.3v2.3a2.03 2.03 0 0 0 2.029 2.029h1.89c1.12 0 2.03-.91 2.03-2.029v-2.3h2.3a2.03 2.03 0 0 0 2.03-2.028v-1.89c0-1.12-.91-2.032-2.03-2.032m.564 3.922a.57.57 0 0 1-.564.564h-3.032a.73.73 0 0 0-.733.732v3.032c0 .311-.254.564-.566.564h-1.89a.565.565 0 0 1-.564-.564V39.53a.73.73 0 0 0-.733-.732h-3.032a.57.57 0 0 1-.564-.564v-1.89c0-.313.253-.567.564-.567h3.032a.73.73 0 0 0 .733-.732v-3.032c0-.311.253-.564.564-.564h1.89c.312 0 .566.253.566.563v3.033c0 .404.328.732.733.732h3.032c.31 0 .564.254.564.567z"/><path fill="url(#e)" d="M44.687 41.86h-1.1V26.89c.453.231.958.354 1.484.354.875 0 1.695-.338 2.31-.953a3.27 3.27 0 0 0 0-4.619l-3.178-3.177v-3.82a.732.732 0 1 0-1.465 0v2.355l-5.25-5.25V7.288h5.25v3.901a.732.732 0 1 0 1.465 0V7.288h.07c.706 0 1.28-.575 1.28-1.28V2.454c0-.706-.574-1.28-1.28-1.28h-8.32c-.706 0-1.28.574-1.28 1.28v3.552c0 .706.574 1.28 1.28 1.28h.07v3.028L26.213.504A1.7 1.7 0 0 0 25.002 0H25c-.459 0-.89.178-1.213.501L2.621 21.671a3.24 3.24 0 0 0-.956 2.31c0 .875.339 1.696.955 2.31a3.278 3.278 0 0 0 3.794.598v6.591c0 .393.328.71.732.71a.72.72 0 0 0 .733-.71v-7.829L25 8.526l17.122 17.125v16.21h-5.267a13 13 0 0 0 .294-.852 12.62 12.62 0 0 0-.926-9.68c-3.287-6.189-10.996-8.55-17.183-5.266-5.735 3.046-8.182 9.887-5.896 15.797H7.879v-4.998a.72.72 0 0 0-.733-.71.72.72 0 0 0-.732.71v4.998H5.31a2.817 2.817 0 0 0-2.813 2.814A2.82 2.82 0 0 0 5.31 47.49h12.104a12.7 12.7 0 0 0 3.863 1.946c1.23.377 2.486.563 3.736.563 2.05 0 4.082-.502 5.945-1.49q.855-.454 1.618-1.02h12.11a2.82 2.82 0 0 0 2.817-2.816 2.82 2.82 0 0 0-2.816-2.814m-8.55-39.22h7.952v3.183h-7.951zm-10.3 4.652a1.196 1.196 0 0 0-1.679.005L6.204 25.255a1.806 1.806 0 0 1-2.55 0 1.79 1.79 0 0 1-.525-1.273c0-.483.187-.935.527-1.274 5.096-5.1 21.167-21.17 21.167-21.17A.25.25 0 0 1 25 1.464c.039 0 .112.01.174.072l21.17 21.17a1.803 1.803 0 0 1 0 2.548c-.338.338-.79.524-1.273.524s-.936-.186-1.274-.524zM5.31 46.026a1.35 1.35 0 0 1 0-2.701h8.51c.536.994 1.19 1.9 1.946 2.7zm24.961 1.19a11.17 11.17 0 0 1-8.565.82 11.16 11.16 0 0 1-6.636-5.476c-2.908-5.474-.82-12.295 4.657-15.204 5.474-2.906 12.294-.816 15.203 4.66a11.17 11.17 0 0 1 .819 8.564 11.17 11.17 0 0 1-5.478 6.636m14.416-1.19H34.232a12.6 12.6 0 0 0 1.952-2.701h8.503c.745 0 1.352.605 1.352 1.349 0 .745-.607 1.352-1.352 1.352"/></g><defs><linearGradient id="b" x1="25" x2="25" y1="16.213" y2="17.678" gradientUnits="userSpaceOnUse"><stop stop-color="#FF7888"/><stop offset=".948" stop-color="#C10000"/></linearGradient><linearGradient id="c" x1="24.999" x2="24.999" y1="19.168" y2="20.633" gradientUnits="userSpaceOnUse"><stop stop-color="#FF7888"/><stop offset=".948" stop-color="#C10000"/></linearGradient><linearGradient id="d" x1="25" x2="25" y1="29.983" y2="44.59" gradientUnits="userSpaceOnUse"><stop stop-color="#FF7888"/><stop offset=".948" stop-color="#C10000"/></linearGradient><linearGradient id="e" x1="25" x2="25" y1="0" y2="50" gradientUnits="userSpaceOnUse"><stop stop-color="#FF7888"/><stop offset=".948" stop-color="#C10000"/></linearGradient><clipPath id="a"><path fill="#fff" d="M0 0h50v50H0z"/></clipPath></defs></svg>